<?xml version="1.0" standalone="no"?>
<!DOCTYPE svg PUBLIC "-//W3C//DTD SVG 20010904//EN"
 "http://www.w3.org/TR/2001/REC-SVG-20010904/DTD/svg10.dtd">
<svg version="1.0" xmlns="http://www.w3.org/2000/svg"
 width="722.000000pt" height="1280.000000pt" viewBox="0 0 722.000000 1280.000000"
 preserveAspectRatio="xMidYMid meet">
<g transform="translate(0.000000,1280.000000) scale(0.100000,-0.100000)"
fill="#000000" stroke="none">
<path d="M5945 12784 c-28 -8 -66 -12 -87 -8 -30 4 -39 2 -43 -10 -3 -9 -7
-22 -9 -30 -4 -12 -11 -11 -41 4 -63 32 -101 8 -122 -78 l-8 -34 -30 24 c-27
21 -43 24 -165 29 -79 3 -146 11 -161 18 -24 12 -29 11 -48 -8 -12 -12 -32
-21 -45 -21 -16 0 -35 -13 -56 -40 -30 -38 -34 -40 -87 -40 -84 0 -229 -52
-321 -116 -42 -29 -142 -97 -222 -151 -156 -105 -250 -185 -250 -214 0 -9 -25
-67 -56 -128 l-57 -111 18 -39 c24 -55 9 -94 -64 -164 -60 -57 -65 -64 -75
-128 -4 -20 -20 -54 -38 -75 -86 -108 -66 -181 42 -153 46 12 53 11 99 -10 32
-16 58 -21 75 -17 14 3 37 9 51 12 19 5 25 2 25 -9 0 -9 -8 -20 -17 -26 -15
-8 -18 -25 -19 -93 -1 -69 -6 -96 -32 -160 -39 -93 -43 -163 -12 -196 28 -29
52 -28 114 7 28 16 63 31 77 35 25 5 71 51 172 170 51 60 83 71 122 42 19 -13
18 -16 -26 -73 -58 -73 -69 -95 -69 -131 0 -31 17 -50 68 -76 l32 -17 -26 -51
c-30 -59 -28 -107 6 -143 21 -23 80 -45 119 -45 12 0 39 -18 61 -40 22 -22 46
-40 55 -40 25 0 78 25 111 53 18 15 37 27 43 27 6 0 22 -17 36 -38 30 -45 28
-52 -32 -140 -50 -74 -53 -103 -21 -187 26 -68 67 -115 101 -115 13 0 44 13
68 30 24 16 51 30 59 30 23 0 40 -20 40 -47 0 -59 50 -103 117 -103 78 0 124
-71 131 -200 5 -101 -13 -183 -60 -280 -38 -79 -118 -163 -151 -158 -36 5 -35
71 2 157 50 113 41 192 -29 239 -23 15 -46 45 -65 85 -35 72 -55 81 -95 42
-34 -33 -46 -27 -55 25 -4 22 -16 51 -27 65 -29 37 -62 32 -107 -16 -47 -51
-70 -49 -91 7 -34 91 -85 102 -105 21 -9 -33 -19 -34 -57 -2 -50 42 -73 34
-93 -35 -15 -49 -37 -45 -48 7 -10 52 -33 67 -69 49 -14 -8 -43 -13 -65 -12
-47 1 -93 -26 -93 -55 0 -30 -28 -34 -76 -10 -59 28 -67 27 -108 -14 -36 -36
-44 -38 -106 -35 -21 1 -54 -9 -83 -24 -58 -31 -78 -32 -102 -6 -24 26 -56 25
-145 -5 -41 -14 -82 -23 -92 -19 -22 7 -68 65 -68 87 0 24 32 37 95 37 82 0
143 18 163 48 15 23 15 27 -4 61 -24 46 -89 79 -184 94 -38 6 -70 14 -70 17 0
10 154 60 182 60 32 0 68 27 68 51 0 59 -59 101 -154 109 l-71 5 77 24 c82 25
118 50 118 81 0 10 -23 45 -50 76 -28 31 -55 74 -60 95 -12 43 -61 90 -126
122 -39 19 -48 20 -77 8 -52 -21 -60 -19 -68 19 -16 74 -102 105 -181 64 -44
-23 -70 -17 -138 31 -35 25 -73 48 -84 51 -12 4 -40 20 -64 37 -28 21 -61 33
-95 38 -29 4 -66 12 -83 19 -50 21 -102 5 -150 -46 -47 -50 -73 -55 -134 -24
-121 62 -240 18 -261 -96 -5 -26 -15 -51 -22 -56 -6 -4 -48 -8 -93 -8 -162 0
-284 -41 -284 -96 0 -16 64 -39 124 -44 l71 -5 -37 -20 c-20 -11 -47 -35 -60
-54 -18 -27 -39 -40 -98 -61 -147 -53 -272 -132 -383 -244 -80 -79 -107 -125
-107 -181 0 -41 -18 -81 -50 -110 -27 -25 -50 -67 -50 -94 0 -11 12 -33 26
-50 21 -26 25 -38 20 -64 -23 -108 -18 -129 30 -141 17 -5 44 2 81 19 31 14
58 23 61 21 2 -3 -24 -40 -58 -82 -83 -103 -93 -120 -86 -141 7 -23 55 -52 81
-50 14 2 21 -7 26 -32 4 -18 14 -41 23 -50 15 -15 19 -15 47 2 62 35 66 15 9
-47 -25 -27 -82 -66 -152 -105 -172 -93 -186 -109 -166 -186 11 -43 11 -50
-12 -93 -32 -59 -112 -140 -176 -176 -66 -39 -101 -73 -114 -112 -15 -46 0
-71 48 -79 20 -4 43 -8 49 -10 28 -9 10 -53 -52 -130 -76 -93 -105 -147 -105
-197 0 -61 52 -89 212 -113 56 -9 107 -20 112 -25 6 -6 9 -28 8 -50 -2 -33 2
-46 27 -70 35 -36 62 -37 126 -9 45 20 50 20 82 5 92 -44 131 -6 163 157 7 32
18 61 25 63 7 3 40 -6 74 -21 107 -45 148 -9 131 114 -10 74 -4 125 20 146 15
14 21 14 60 0 67 -24 133 -20 168 10 16 14 33 37 37 52 11 49 35 74 92 100 92
42 203 32 203 -19 0 -15 -5 -19 -20 -15 -48 13 -69 -106 -30 -170 24 -40 41
-41 114 -7 76 34 86 29 83 -42 -2 -48 1 -58 21 -74 25 -20 41 -18 84 12 27 19
27 18 42 -4 33 -50 65 -136 75 -198 22 -133 6 -919 -20 -997 -12 -37 -16 -39
-43 -18 -35 26 -75 19 -111 -21 -36 -39 -55 -38 -55 3 0 41 -38 110 -81 147
-50 43 -82 49 -115 24 -13 -11 -31 -17 -39 -14 -27 10 -64 -12 -146 -89 -45
-42 -88 -75 -97 -73 -10 2 -24 31 -38 78 -25 81 -57 120 -99 120 -61 0 -95 42
-95 117 0 71 -41 116 -124 138 -32 8 -74 28 -94 44 -44 35 -104 45 -206 34
l-69 -8 -19 -55 c-10 -30 -25 -61 -32 -68 -12 -12 -16 -11 -29 9 -8 13 -18 40
-21 60 -4 21 -16 49 -28 64 -18 23 -26 26 -57 20 -20 -3 -56 -8 -81 -11 -25
-3 -55 -7 -67 -9 -24 -6 -43 -50 -43 -102 0 -56 -15 -73 -64 -73 -32 0 -48 -6
-66 -25 -13 -14 -29 -25 -35 -25 -6 0 -42 32 -80 71 -70 72 -117 102 -143 91
-8 -2 -22 -24 -32 -48 -16 -36 -23 -43 -52 -46 -65 -6 -46 -73 63 -224 33 -44
59 -86 59 -92 0 -17 -76 -15 -167 4 -88 18 -98 13 -97 -46 1 -42 105 -268 150
-327 26 -35 22 -42 -10 -18 -43 33 -59 4 -35 -64 22 -62 113 -81 167 -36 38
32 42 31 42 -5 0 -37 -27 -56 -95 -65 -27 -4 -64 -13 -82 -20 -31 -13 -31 -14
-22 -57 15 -68 60 -199 86 -251 24 -48 24 -50 6 -69 -21 -24 -113 -69 -125
-62 -4 3 -8 20 -8 39 0 29 -5 36 -37 52 -21 10 -38 24 -38 30 0 7 23 28 50 45
40 27 51 39 53 65 7 66 -122 157 -223 157 -47 0 -115 -25 -115 -42 0 -4 16
-18 35 -32 41 -30 48 -45 33 -69 -17 -28 13 -68 68 -92 24 -11 44 -24 44 -29
0 -6 -36 -10 -79 -10 -89 0 -117 -15 -105 -54 8 -27 59 -81 102 -107 17 -12
32 -27 32 -34 0 -8 -29 -40 -65 -72 -151 -134 -149 -208 3 -115 53 32 140 68
147 60 3 -3 -23 -34 -57 -69 -75 -76 -178 -225 -178 -256 0 -38 20 -37 102 6
44 22 84 39 89 35 5 -3 9 -16 9 -29 0 -29 20 -36 101 -38 84 -2 103 19 137
153 15 57 33 105 39 108 8 2 21 -15 32 -41 29 -68 61 -73 191 -27 108 38 170
39 170 4 0 -22 122 -140 153 -148 19 -4 55 3 116 24 83 28 131 37 131 24 0
-17 -34 -61 -123 -159 -55 -60 -104 -121 -110 -135 -6 -14 -12 -26 -13 -28 -1
-2 -16 4 -33 12 -16 9 -51 16 -76 16 -61 0 -75 9 -130 80 -75 97 -105 78 -129
-84 -8 -55 -22 -106 -30 -114 -12 -13 -17 -11 -38 13 -28 34 -76 55 -121 55
-57 0 -63 -19 -28 -97 34 -79 50 -141 51 -197 0 -36 -1 -38 -27 -33 -16 2 -50
13 -76 23 -36 14 -52 16 -65 8 -30 -19 -25 -42 22 -92 65 -69 63 -89 -20 -188
-77 -92 -88 -110 -80 -131 4 -11 16 -14 37 -11 16 3 32 2 34 -2 2 -4 -16 -31
-41 -60 -97 -113 -115 -211 -27 -144 38 29 182 84 221 84 54 0 35 -57 -54
-162 -113 -133 -117 -197 -9 -152 46 19 85 12 85 -16 0 -11 -16 -41 -36 -66
-42 -55 -42 -87 -2 -92 16 -2 28 -6 28 -9 0 -3 -14 -30 -31 -59 -28 -50 -31
-74 -8 -74 5 0 41 30 81 66 93 85 114 96 136 66 11 -14 35 -25 66 -31 56 -10
85 -35 95 -82 14 -70 86 -69 151 1 25 27 45 40 63 40 14 0 30 8 35 17 9 15 13
14 45 -10 87 -66 130 -288 91 -462 -29 -125 -29 -130 5 -184 54 -88 64 -137
58 -269 -3 -71 -15 -161 -30 -227 -62 -269 -87 -812 -58 -1275 34 -539 21
-850 -36 -850 -18 0 -17 57 3 179 18 106 13 180 -12 206 -21 21 -53 3 -99 -57
-51 -68 -67 -64 -60 14 10 122 -38 180 -76 93 -29 -66 -45 -54 -41 34 3 53 0
78 -12 96 -9 14 -21 25 -26 25 -17 0 -34 -43 -46 -115 l-11 -70 -23 50 c-44
96 -81 130 -95 87 -3 -11 4 -48 15 -83 11 -35 20 -65 20 -66 0 -1 -33 19 -73
43 -40 25 -86 46 -102 47 -68 5 -28 -60 99 -161 38 -31 65 -57 59 -59 -6 -2
-53 14 -105 35 -110 47 -144 54 -159 36 -19 -23 15 -61 83 -95 82 -41 115 -67
140 -107 16 -26 18 -36 9 -45 -18 -18 -111 -10 -163 14 -44 21 -52 21 -102 9
-30 -7 -65 -10 -78 -7 -13 3 -30 2 -37 -3 -24 -14 3 -36 72 -59 69 -24 127
-56 127 -71 0 -14 -25 -12 -90 5 -64 17 -146 20 -155 5 -4 -6 -1 -18 7 -27 20
-24 129 -73 164 -73 38 0 69 -22 61 -43 -3 -8 -24 -18 -49 -22 -72 -12 -75
-20 -16 -45 71 -30 100 -39 182 -50 37 -6 73 -13 78 -16 18 -12 -16 -24 -67
-24 -70 -1 -195 -25 -233 -44 -18 -9 -32 -24 -32 -33 0 -13 8 -15 53 -9 167
20 247 19 247 -3 0 -16 -35 -23 -181 -31 -205 -13 -373 -52 -410 -96 -13 -16
-11 -17 36 -10 145 20 208 26 386 36 154 9 203 9 239 -1 25 -7 86 -13 135 -13
94 0 123 9 190 59 74 56 168 63 380 29 l170 -26 65 20 c36 11 103 28 150 37
47 10 105 26 130 37 74 34 184 15 276 -47 45 -30 72 -31 125 -5 44 23 92 82
121 152 15 34 28 50 49 57 35 12 37 35 5 56 -27 18 -66 8 -101 -25 -12 -11
-31 -21 -44 -22 -22 -3 -24 1 -25 37 -1 32 -6 42 -28 55 -25 13 -32 13 -73 -1
-25 -9 -45 -14 -45 -11 0 3 32 38 70 78 39 39 70 78 70 87 0 8 -10 27 -21 41
-20 25 -25 27 -71 21 -30 -4 -60 -3 -77 5 -24 10 -36 8 -75 -11 -25 -12 -57
-35 -70 -52 -35 -44 -47 -28 -44 58 4 113 -31 126 -94 35 -18 -27 -36 -50 -40
-50 -13 0 -8 33 7 60 22 38 18 85 -8 116 -14 16 -30 25 -39 22 -8 -4 -33 -41
-55 -84 l-41 -77 -22 71 c-26 83 -54 132 -74 132 -21 0 -24 -7 -35 -98 -15
-120 -68 -207 -84 -139 -23 93 -48 1110 -36 1487 3 107 18 305 32 440 46 428
63 717 83 1353 l6 197 60 0 c66 0 98 12 98 38 0 9 -11 41 -25 70 -14 30 -25
59 -25 66 0 7 19 16 43 22 48 10 60 38 33 80 -15 22 -15 26 1 50 12 19 18 55
21 137 2 62 8 116 12 120 4 5 24 -3 45 -17 21 -14 43 -26 50 -26 7 0 37 -27
67 -59 30 -33 67 -63 83 -67 31 -8 104 19 195 71 30 18 104 58 165 90 141 74
153 83 165 125 13 49 63 125 95 146 24 16 28 16 42 1 14 -14 17 -63 19 -404 2
-213 8 -464 13 -558 6 -93 11 -294 11 -445 1 -406 17 -871 34 -980 8 -52 26
-126 40 -165 125 -351 124 -346 136 -775 14 -494 36 -829 65 -1017 13 -82 13
-96 -2 -142 -16 -50 -16 -51 9 -88 14 -21 30 -55 37 -76 11 -32 10 -41 -3 -62
-14 -21 -24 -25 -69 -25 -51 0 -88 -13 -75 -26 14 -14 126 -34 191 -34 39 0
80 6 95 14 15 8 48 17 74 21 65 10 79 23 85 78 3 26 9 47 14 47 23 0 219 -188
219 -210 0 -24 29 -60 49 -60 9 0 31 16 48 35 26 29 38 35 72 35 l40 0 -6 268
c-7 314 2 388 74 645 52 188 51 144 33 837 -11 418 -18 546 -49 915 -11 127
-25 307 -31 400 -21 336 -31 452 -46 548 -14 88 -14 117 1 305 32 398 65 620
135 902 45 179 62 278 89 520 22 193 47 303 85 377 62 123 130 361 165 573 42
260 52 511 37 938 -8 241 -5 284 19 230 13 -29 62 -35 103 -14 16 8 49 38 72
66 l43 51 47 -74 c64 -100 87 -108 147 -53 21 18 53 41 70 50 41 20 59 47 79
117 34 118 62 126 157 45 35 -29 73 -59 85 -65 19 -10 22 -20 22 -74 0 -137
-102 -480 -197 -664 -102 -199 -110 -218 -152 -343 -130 -398 -459 -1743 -535
-2190 -54 -314 -58 -538 -17 -821 35 -236 42 -370 51 -979 10 -665 13 -701 85
-1072 56 -283 60 -412 20 -623 -53 -278 -67 -382 -69 -505 -1 -115 1 -129 24
-175 43 -86 69 -85 225 14 56 35 62 42 82 102 35 105 47 242 47 524 0 305 -8
380 -75 691 -27 128 -56 276 -65 330 -24 144 -30 389 -21 824 10 482 6 535
-43 709 -62 217 -72 287 -77 566 -6 306 3 396 87 845 101 540 250 1180 360
1550 26 91 54 185 60 210 7 25 34 82 62 127 141 235 229 510 273 858 9 71 19
132 21 134 5 6 264 46 356 56 78 8 95 22 100 80 3 38 6 42 58 67 30 15 59 29
63 30 5 2 -3 33 -17 68 -15 36 -33 99 -40 140 -13 78 -33 127 -60 149 -21 18
-20 44 3 65 11 10 24 30 31 46 9 21 37 41 113 82 170 90 177 140 42 287 -41
44 -76 89 -76 99 -1 9 -1 49 0 87 2 58 -3 83 -28 147 -17 42 -31 85 -31 96 0
24 -39 83 -96 144 -26 27 -44 57 -44 70 0 97 24 357 40 442 38 193 103 355
160 396 28 20 30 26 30 85 0 46 5 69 18 86 27 33 46 20 86 -58 41 -83 81 -122
130 -130 35 -5 39 -3 100 61 56 58 68 66 101 66 43 0 95 -29 120 -66 9 -14 33
-32 52 -41 20 -8 59 -30 87 -49 97 -65 138 -40 128 79 -4 53 -3 59 14 55 10
-1 58 -50 108 -107 102 -118 158 -163 196 -159 21 3 26 9 31 45 3 24 8 45 11
49 4 3 23 1 43 -6 82 -27 119 18 90 107 -14 41 -15 57 -6 84 34 99 -23 220
-197 419 -90 102 -125 159 -120 193 3 19 8 22 39 19 41 -4 99 36 99 69 0 23
15 24 87 3 61 -18 121 -12 130 13 3 8 -2 29 -12 45 -13 23 -16 43 -12 78 7 57
-7 90 -80 182 -71 90 -78 104 -54 120 26 18 61 80 71 125 10 45 -2 72 -65 143
-49 55 -50 59 -34 105 9 25 8 48 -10 122 -11 50 -21 104 -21 120 0 101 -200
309 -385 400 -84 42 -117 47 -148 23 -35 -28 -53 -25 -68 13 -7 17 -18 35 -23
39 -6 4 -46 5 -89 1 l-78 -6 -83 87 c-90 94 -92 94 -181 70z m-1085 -1644 c0
-11 -31 -29 -71 -40 -38 -11 -36 0 4 28 33 23 67 29 67 12z m-2776 -636 c10
-27 7 -34 -18 -34 -24 0 -41 23 -30 41 9 15 41 10 48 -7z m3606 -34 c0 -16
-23 -60 -32 -60 -12 0 -10 44 4 58 14 14 28 16 28 2z m-2550 -32 c0 -30 -19
-58 -39 -58 -9 0 -28 11 -41 25 -19 20 -21 27 -11 39 25 30 91 26 91 -6z
m-553 -105 c5 -15 -87 -107 -128 -129 -28 -14 -32 -13 -69 13 -22 15 -38 32
-37 36 1 5 44 26 96 47 51 21 95 41 99 45 9 9 35 1 39 -12z m3147 -28 c3 -8 3
-23 0 -32 -26 -81 -44 -96 -44 -38 0 35 18 85 31 85 4 0 9 -7 13 -15z m-2346
-287 c-6 -18 -135 -60 -160 -52 -18 5 -19 7 -5 22 9 8 42 21 74 28 76 16 96
17 91 2z m-198 -356 c0 -27 -29 -49 -78 -60 -50 -12 -60 -3 -29 25 60 54 107
69 107 35z m480 -92 c0 -63 -60 -126 -108 -113 -33 8 -26 32 14 49 24 10 40
26 50 49 16 38 44 47 44 15z m-25 -397 c-3 -16 -15 -37 -26 -48 -19 -19 -19
-19 -40 2 l-22 21 26 26 c14 14 36 26 48 26 18 0 20 -4 14 -27z m-1865 -104
c0 -20 -21 -49 -35 -49 -18 0 -20 31 -3 48 15 15 38 16 38 1z m445 -119 c-4
-12 -13 -20 -23 -18 -23 4 -25 23 -6 42 21 21 39 7 29 -24z m-625 -105 c17
-20 8 -50 -14 -50 -27 0 -43 29 -27 49 17 20 25 20 41 1z m3768 -93 c-2 -9 -9
-17 -15 -19 -16 -6 -36 45 -28 66 5 13 10 12 26 -8 11 -13 19 -31 17 -39z
m-3042 13 c4 -8 -1 -33 -10 -56 l-17 -41 36 -32 c19 -18 35 -35 35 -39 0 -25
-102 15 -140 55 -40 43 -18 98 46 118 41 12 44 12 50 -5z m777 -13 c21 -18 22
-44 3 -80 -30 -58 -76 -78 -76 -33 0 10 -13 37 -30 59 -16 23 -30 46 -30 51 0
33 97 35 133 3z m2331 -90 c8 -13 -23 -52 -40 -52 -17 0 -18 14 -4 41 11 20
35 26 44 11z m-2566 -198 c1 -10 -2 -26 -8 -34 -16 -24 -43 16 -29 42 12 23
33 19 37 -8z m2462 -221 c-1 -5 -7 -19 -15 -33 -8 -14 -14 -35 -15 -47 -1 -60
-118 -131 -170 -103 -18 10 -21 17 -16 43 10 51 39 75 151 123 56 25 65 27 65
17z m-2280 -104 l24 -47 -29 -48 c-17 -26 -35 -49 -42 -51 -7 -3 -16 12 -22
34 -12 43 -15 146 -4 157 18 18 49 -2 73 -45z m-147 -40 c38 -75 52 -192 37
-326 -15 -144 -67 -333 -91 -333 -10 0 -10 -7 -14 290 -2 124 -8 265 -14 313
-7 58 -7 97 0 114 9 23 11 24 32 11 12 -9 34 -39 50 -69z m303 40 c37 -27 53
-32 109 -34 46 -2 72 -8 85 -20 22 -20 40 -94 40 -168 1 -65 16 -108 70 -196
23 -39 48 -90 55 -115 21 -69 33 -86 61 -86 34 0 54 12 157 92 107 82 131 87
141 26 9 -58 28 -84 70 -98 31 -10 41 -9 77 12 l41 23 18 -23 c87 -107 48
-902 -66 -1357 -29 -115 -49 -164 -104 -255 -45 -75 -67 -151 -105 -370 -42
-248 -73 -392 -125 -595 -123 -477 -135 -606 -127 -1379 4 -408 10 -579 27
-791 12 -148 22 -360 23 -470 2 -177 0 -206 -17 -249 -18 -45 -19 -57 -8 -155
33 -300 -5 -699 -83 -871 -47 -101 -55 -141 -62 -308 -5 -126 2 -239 22 -337
2 -11 0 -27 -5 -34 -7 -13 -15 -12 -50 4 -35 16 -46 17 -74 7 -18 -7 -35 -12
-38 -12 -3 0 -8 33 -11 74 -3 49 -21 119 -52 212 -65 194 -75 247 -82 429 -4
128 -2 187 13 290 25 175 26 501 1 631 -18 95 -46 187 -91 292 -66 155 -94
381 -126 992 -11 212 -27 477 -35 590 -8 113 -24 349 -35 525 -11 176 -25 371
-31 432 -6 62 -9 119 -6 127 12 29 56 46 196 75 163 34 191 48 191 92 0 37 13
65 52 106 l30 31 -29 44 c-75 108 -77 142 -14 182 83 53 102 113 56 180 -31
46 -31 52 1 115 22 42 25 57 18 83 -16 54 -52 72 -159 78 l-94 5 -68 68 c-38
37 -73 67 -79 67 -5 0 -31 -13 -57 -30 -26 -16 -52 -30 -57 -30 -13 0 -13 151
0 186 6 14 39 56 73 93 116 122 128 148 82 191 -20 19 -25 33 -25 75 0 29 -6
60 -15 72 -16 24 -78 48 -99 40 -45 -17 -72 114 -62 303 8 169 31 294 77 422
21 59 56 181 78 271 22 90 54 201 71 248 34 92 98 229 106 229 3 0 25 -14 50
-31z m-1026 -1804 c0 -23 -45 -65 -69 -65 -11 0 -25 9 -31 20 -8 15 -6 23 12
40 27 25 88 28 88 5z m128 -87 c-7 -21 -36 -34 -49 -21 -6 6 -8 16 -5 22 10
15 59 14 54 -1z m592 -672 c0 -34 -20 -87 -31 -80 -13 8 -11 78 3 92 18 18 28
14 28 -12z m-985 -22 c24 -24 13 -39 -32 -42 -49 -4 -73 17 -48 42 21 21 59
21 80 0z m-457 -414 c3 -31 -32 -90 -55 -90 -23 0 -53 29 -53 52 0 29 49 69
79 66 19 -2 27 -10 29 -28z m-338 -49 c0 -6 11 -22 25 -37 27 -29 34 -91 13
-112 -15 -15 -63 -16 -89 -2 -26 14 -24 51 6 110 23 45 45 65 45 41z m237
-1222 c80 -50 90 -156 28 -304 -35 -85 -37 -92 -26 -138 15 -66 14 -115 -5
-197 -18 -81 -38 -106 -54 -66 -19 52 -32 261 -28 469 5 263 11 281 85 236z"/>
<path d="M2720 579 c-7 -12 -9 -37 -5 -59 4 -22 4 -48 0 -60 -7 -23 -30 -27
-39 -5 -25 67 -146 -85 -178 -225 -20 -86 27 -95 82 -14 17 24 34 44 38 44 4
0 27 -16 51 -35 53 -42 92 -45 126 -11 23 24 27 35 42 151 7 55 11 61 41 74
17 8 32 18 32 21 0 14 -82 99 -114 119 -42 26 -62 26 -76 0z"/>
<path d="M4160 475 c-5 -14 -10 -36 -10 -48 0 -41 -23 -70 -68 -83 -54 -15
-72 -30 -72 -59 0 -26 49 -72 83 -80 111 -25 131 -23 174 17 29 27 29 52 0 75
-34 26 -47 56 -47 105 0 75 -40 125 -60 73z"/>
<path d="M217 334 c-3 -3 -3 -12 0 -20 8 -20 -14 -43 -64 -66 -44 -21 -55 -44
-27 -55 9 -3 61 2 117 11 194 33 207 47 95 101 -69 33 -107 42 -121 29z"/>
</g>
</svg>
