<?xml version="1.0" standalone="no"?>
<!DOCTYPE svg PUBLIC "-//W3C//DTD SVG 20010904//EN"
 "http://www.w3.org/TR/2001/REC-SVG-20010904/DTD/svg10.dtd">
<svg version="1.0" xmlns="http://www.w3.org/2000/svg"
 width="880.000000pt" height="1280.000000pt" viewBox="0 0 880.000000 1280.000000"
 preserveAspectRatio="xMidYMid meet">
<g transform="translate(0.000000,1280.000000) scale(0.100000,-0.100000)"
fill="#000000" stroke="none">
<path d="M4694 12764 c-26 -34 -29 -35 -78 -29 -46 6 -53 4 -74 -18 -16 -17
-26 -44 -31 -82 -8 -55 -21 -75 -50 -75 -8 0 -34 -11 -57 -25 -42 -25 -43 -25
-54 -6 -5 11 -10 30 -10 43 -1 36 -35 102 -65 126 -35 28 -60 28 -79 0 -15
-21 -19 -21 -48 -9 -60 24 -66 24 -92 -2 -15 -15 -27 -42 -31 -71 -4 -25 -12
-46 -17 -46 -5 0 -24 16 -41 36 -54 61 -105 78 -139 47 -17 -15 -21 -15 -54 0
-86 41 -109 15 -102 -115 3 -48 2 -88 -2 -88 -4 0 -15 9 -25 20 -24 27 -117
60 -167 60 -29 0 -54 -8 -80 -26 l-38 -27 -32 25 c-73 56 -108 45 -108 -32 0
-31 -5 -52 -16 -61 -12 -10 -15 -24 -10 -60 8 -56 -6 -70 -37 -41 -27 26 -69
42 -108 42 -34 0 -36 -8 -9 -60 23 -45 16 -49 -32 -20 -70 42 -111 14 -76 -53
10 -21 17 -45 14 -52 -3 -8 -25 -23 -50 -34 -82 -36 -50 -88 61 -97 98 -8 123
-14 123 -29 0 -7 -13 -16 -30 -20 -16 -4 -30 -11 -30 -17 0 -11 -34 -8 -142
11 -62 10 -106 3 -119 -20 -8 -16 -1 -28 41 -73 57 -60 63 -83 23 -92 -51 -11
-55 -13 -48 -34 7 -22 5 -23 -61 -40 -77 -19 -66 -53 57 -190 l79 -89 -35 -26
c-43 -33 -54 -64 -29 -82 28 -21 61 -15 96 16 64 55 128 77 128 43 0 -29 21
-42 67 -42 74 0 113 -33 113 -96 0 -64 -65 -144 -118 -144 -38 0 -72 -11 -72
-22 0 -6 18 -30 40 -55 65 -74 53 -123 -30 -123 -55 0 -66 7 -44 31 40 44 -19
84 -142 99 -133 15 -208 52 -251 124 -43 71 -105 95 -158 60 -23 -15 -25 -15
-31 0 -4 9 -25 26 -48 38 -22 11 -55 32 -73 45 -43 33 -94 40 -117 17 -14 -14
-17 -29 -14 -66 4 -33 1 -52 -8 -59 -20 -17 -68 -4 -120 31 -89 62 -121 28
-104 -108 6 -42 8 -77 6 -79 -2 -2 -20 17 -41 43 -43 52 -89 84 -123 84 -17 0
-24 -7 -29 -30 -6 -34 -11 -35 -60 -15 -76 32 -131 9 -98 -41 10 -16 19 -54
22 -102 2 -43 9 -90 15 -105 18 -46 -1 -51 -75 -21 l-65 27 -35 -22 c-28 -17
-50 -21 -116 -21 -87 0 -100 -10 -61 -45 11 -10 20 -27 20 -37 0 -28 24 -69
59 -102 63 -60 32 -106 -70 -106 -64 0 -89 -13 -89 -47 0 -42 97 -129 208
-187 52 -26 91 -53 89 -59 -2 -8 -42 -14 -113 -17 l-109 -5 -3 -28 c-2 -15
-14 -34 -27 -43 -23 -15 -38 -17 -145 -15 -31 1 -62 -8 -105 -30 -194 -99
-185 -91 -185 -162 0 -34 9 -63 30 -103 31 -59 30 -82 -4 -88 -11 -3 -41 -8
-66 -13 -50 -9 -61 -29 -39 -70 19 -35 60 -53 126 -54 113 -2 156 -26 78 -43
-77 -16 -85 -22 -85 -65 0 -50 -40 -87 -104 -96 -50 -8 -79 -1 -118 28 -33 24
-121 35 -143 17 -8 -7 -15 -28 -15 -47 0 -29 -5 -36 -34 -48 -42 -18 -46 -28
-46 -128 0 -98 -13 -151 -45 -183 -22 -22 -32 -24 -120 -24 -123 0 -127 -16
-19 -67 l77 -37 -54 -25 c-35 -17 -63 -39 -80 -65 -14 -21 -42 -47 -63 -58
-46 -24 -48 -52 -5 -67 18 -6 42 -11 55 -11 37 0 74 -18 68 -33 -2 -7 -33 -30
-68 -50 -79 -47 -106 -74 -86 -87 19 -12 33 -8 144 41 140 62 148 54 45 -44
-53 -50 -70 -72 -67 -89 3 -21 8 -23 63 -23 l60 0 -4 -43 c-3 -53 19 -92 54
-92 27 0 55 -33 55 -66 0 -27 32 -56 53 -48 9 3 26 22 38 41 l22 34 31 -30
c29 -28 34 -30 52 -17 11 8 40 16 65 18 41 3 46 6 70 51 l26 48 39 -46 40 -47
89 98 c136 151 135 150 191 107 35 -26 35 -26 54 -7 10 10 57 92 104 182 93
178 146 257 178 268 26 8 34 -6 43 -72 3 -29 13 -58 22 -65 11 -10 13 -25 8
-64 -8 -67 18 -105 71 -105 52 0 87 23 124 80 18 27 36 50 40 50 4 0 10 -27
12 -59 2 -33 11 -67 19 -77 8 -9 42 -30 77 -46 34 -15 62 -33 62 -38 0 -6 -9
-27 -20 -47 -25 -47 -25 -65 0 -88 14 -13 29 -16 55 -12 19 3 37 2 39 -2 3 -4
-13 -36 -35 -72 -44 -72 -47 -103 -9 -106 27 -3 47 11 98 70 l33 38 -6 -78
c-9 -119 16 -134 77 -47 l33 46 5 -89 c3 -48 9 -94 13 -100 15 -24 35 -13 47
23 l12 36 61 -7 c66 -7 77 -1 77 46 0 15 9 38 21 53 24 30 77 35 119 11 36
-20 54 -18 96 10 20 14 45 25 55 25 23 0 27 14 21 86 l-5 62 47 -5 c41 -5 46
-4 46 15 0 11 -20 47 -45 80 -42 55 -58 91 -35 77 13 -8 67 22 80 44 5 11 10
30 10 43 0 13 11 47 25 76 14 30 23 58 20 62 -3 5 -1 11 4 14 5 3 34 -23 66
-59 41 -47 67 -68 97 -77 39 -11 42 -11 62 14 71 87 96 123 96 139 0 21 8 22
110 19 82 -2 140 -17 140 -35 0 -8 -4 -17 -10 -20 -5 -3 -14 -14 -20 -24 -7
-15 -2 -26 30 -59 38 -38 39 -42 33 -91 -5 -41 -3 -52 10 -57 23 -9 45 7 78
57 l29 44 -6 -75 c-5 -62 -4 -78 9 -89 22 -17 34 -7 48 40 20 66 59 79 59 19
0 -62 38 -46 71 31 24 55 40 65 65 38 33 -37 68 -25 149 52 l75 71 79 -57 c44
-32 82 -64 85 -71 3 -9 -14 -26 -48 -48 -30 -19 -57 -39 -60 -45 -17 -27 45
-80 96 -82 14 0 5 -5 -21 -12 -57 -15 -72 -38 -46 -67 11 -12 32 -28 47 -36
16 -8 28 -19 28 -24 0 -5 -29 -23 -64 -39 -145 -66 -109 -134 53 -97 91 21 94
21 85 -6 -12 -41 -43 -75 -73 -81 -17 -4 -53 -30 -85 -61 -43 -42 -56 -61 -56
-84 0 -20 -10 -40 -32 -61 -17 -17 -36 -31 -40 -31 -5 0 -13 -11 -20 -25 -15
-33 4 -60 82 -120 l62 -47 64 27 c36 15 78 41 95 57 52 53 32 5 -42 -98 -81
-114 -102 -151 -94 -164 10 -17 48 -11 70 10 20 18 23 19 35 5 7 -8 15 -45 17
-82 3 -38 12 -79 20 -91 14 -23 15 -23 35 -5 11 10 35 48 54 85 18 36 39 70
45 74 9 5 10 2 5 -12 -5 -10 -10 -38 -13 -60 -4 -34 -1 -46 16 -63 32 -32 45
-21 52 43 11 99 36 87 50 -23 10 -79 22 -111 45 -111 23 0 34 44 34 137 l0 85
35 -6 c114 -20 102 -21 119 18 9 21 33 49 59 67 l45 31 -55 76 c-42 59 -53 82
-51 106 3 26 8 31 33 34 17 2 61 -9 98 -23 85 -31 93 -31 109 2 9 20 26 31 60
41 42 12 48 17 54 48 15 82 113 85 227 7 56 -39 102 -108 153 -230 148 -353
219 -823 194 -1280 -12 -226 -31 -368 -80 -616 -22 -109 -45 -255 -51 -325
-16 -199 -38 -415 -56 -557 -13 -102 -17 -217 -17 -540 -1 -410 6 -541 40
-755 8 -52 19 -143 24 -201 7 -83 14 -116 34 -154 14 -26 26 -58 26 -69 0 -40
41 -171 75 -237 18 -36 47 -103 63 -150 17 -46 44 -119 62 -162 48 -119 67
-209 100 -461 28 -212 31 -268 40 -691 5 -253 12 -559 16 -680 9 -313 -11
-428 -82 -484 -55 -43 -116 -53 -355 -58 -125 -3 -233 -9 -240 -14 -40 -26 31
-32 571 -49 397 -13 506 -23 660 -65 72 -19 199 -29 229 -18 23 9 22 11 -30
52 -68 55 -97 67 -184 75 -96 9 -166 43 -202 97 -31 47 -29 15 -23 384 2 93
-4 202 -18 325 -33 283 -41 377 -52 605 -13 265 -23 365 -66 646 -19 125 -34
246 -34 269 0 27 -14 76 -39 134 -65 152 -227 681 -266 866 -63 299 -80 828
-40 1260 8 91 24 341 35 555 11 215 25 444 31 510 13 151 60 372 105 491 19
51 34 99 34 108 0 9 14 25 32 34 69 37 84 61 118 186 38 136 57 167 125 216
80 57 112 95 120 142 11 64 32 116 75 188 21 36 44 84 50 108 17 65 96 117
213 142 39 8 72 24 113 56 76 59 102 70 227 88 58 9 115 20 129 25 43 16 88
61 88 88 0 50 91 113 164 113 11 0 43 -12 73 -26 30 -14 88 -32 129 -40 97
-18 111 -26 124 -72 19 -68 70 -112 131 -112 41 0 59 15 59 47 0 60 89 98 163
69 85 -32 122 -14 111 56 -4 25 0 47 16 79 13 24 22 57 22 74 -1 17 10 46 25
67 14 21 23 44 20 52 -7 18 -68 36 -124 36 -58 0 -71 7 -93 49 -10 20 -32 49
-49 65 -17 17 -31 35 -31 42 0 7 20 22 44 33 78 34 97 102 46 166 -37 46 -38
72 -5 85 41 16 98 -14 140 -71 43 -61 59 -63 50 -9 -6 36 -5 40 14 40 13 0 26
-10 33 -25 21 -46 73 -45 62 2 -6 23 -5 25 16 20 30 -8 53 5 113 60 26 24 63
51 82 59 27 11 35 20 35 39 0 16 16 42 41 70 23 25 38 49 34 56 -5 6 4 21 20
33 27 22 27 23 11 54 -27 52 -22 70 22 74 33 3 37 6 40 34 2 17 -7 57 -19 89
-37 100 -86 129 -143 84 l-26 -20 0 22 c0 12 9 37 20 55 l21 33 -21 40 c-11
22 -20 42 -20 44 0 2 25 21 56 41 50 34 55 40 49 64 -18 73 -17 82 9 126 33
57 33 89 0 115 -34 26 -74 27 -125 1 -45 -23 -59 -20 -59 15 0 34 -41 59 -81
51 -17 -3 -58 -18 -90 -32 -32 -14 -63 -24 -68 -23 -6 2 11 35 38 72 62 85 88
148 75 185 -8 23 -15 27 -49 26 -22 0 -48 -4 -59 -9 -18 -8 -18 -7 -1 18 23
36 12 62 -40 93 -33 19 -64 27 -120 31 -86 7 -99 0 -151 -83 -61 -96 -56 -31
7 110 66 146 80 187 77 220 -5 55 -39 47 -117 -28 -71 -69 -85 -75 -117 -51
-26 20 -26 20 -80 -21 -41 -31 -48 -34 -56 -20 -5 9 -20 16 -33 16 -29 0 -30
3 -9 34 21 34 2 41 -33 13 -31 -27 -53 -25 -53 4 0 24 32 44 97 59 74 17 96
51 39 62 -33 5 -30 27 9 63 46 44 67 44 88 0 22 -47 58 -69 100 -61 43 8 72
40 87 96 7 25 14 51 17 59 2 10 24 -5 66 -46 79 -76 104 -93 142 -93 34 0 55
15 55 41 0 9 -27 47 -60 84 -72 81 -80 105 -25 69 16 -10 34 -14 50 -10 20 5
25 12 25 40 0 21 6 36 15 40 10 3 15 19 15 46 0 45 10 70 46 113 13 16 24 37
24 48 0 10 -36 58 -80 105 -69 75 -80 91 -80 123 0 20 -9 51 -20 69 -25 40
-104 92 -141 92 -15 0 -31 5 -35 12 -7 11 1 19 57 58 33 24 18 55 -39 76 -69
26 -72 29 -65 87 8 68 26 102 85 159 l49 48 -6 53 c-6 44 -3 59 14 88 35 57
28 76 -33 88 -23 5 -36 17 -52 46 -19 37 -24 41 -74 48 -31 4 -70 18 -90 32
-26 18 -49 25 -82 25 -44 0 -49 2 -135 66 -22 15 -24 15 -62 -15 l-38 -31 -6
36 c-7 42 -32 74 -59 74 -10 0 -36 -16 -57 -36 -39 -35 -40 -35 -53 -15 -15
24 -45 27 -72 6 -28 -21 -41 -19 -70 10 -31 31 -56 31 -114 4 -47 -23 -72 -63
-72 -115 0 -22 -3 -24 -14 -15 -18 15 -33 84 -41 186 -8 101 -20 147 -45 170
-17 15 -24 16 -49 5 -16 -6 -37 -20 -47 -31 -24 -26 -41 -24 -71 11 -13 17
-31 30 -39 30 -7 0 -25 18 -39 40 -14 22 -29 40 -33 40 -21 -1 -35 -22 -45
-70 -7 -29 -17 -55 -23 -57 -6 -2 -19 14 -29 36 -40 89 -80 92 -69 5 7 -61 -7
-72 -42 -33 -26 29 -70 50 -88 43 -20 -8 -20 -42 0 -110 18 -65 14 -108 -6
-55 -25 65 -75 155 -89 159 -12 4 -13 -10 -8 -78 l5 -82 -37 36 c-48 47 -69
46 -88 -3 -10 -26 -25 -43 -46 -52 -26 -11 -32 -20 -32 -44 0 -25 -5 -30 -30
-35 -47 -8 -43 -37 16 -114 51 -68 51 -68 39 -107 -19 -56 -34 -65 -67 -43
-16 10 -34 24 -42 31 -23 24 -36 8 -36 -45 0 -27 -3 -54 -7 -58 -4 -4 -26 5
-48 20 -72 47 -78 40 -82 -111 -2 -72 -7 -96 -20 -110 -14 -14 -20 -15 -30 -5
-10 10 -10 16 0 30 32 44 23 62 -30 62 -16 0 -37 9 -48 20 -33 33 -26 77 25
155 49 74 59 99 53 136 -5 36 -40 35 -103 -1 l-55 -31 -11 28 c-6 15 -15 38
-20 51 -7 19 -16 22 -62 22 -40 0 -61 6 -81 21 -35 27 -55 19 -111 -46 -49
-58 -74 -67 -109 -40 -24 18 -14 30 34 43 l35 9 -57 28 -57 28 27 51 c16 32
26 69 27 98 1 32 10 59 27 85 51 75 42 114 -28 118 l-39 3 -1 73 c0 41 -1 80
-2 87 -4 24 -40 11 -76 -28 -59 -63 -69 -54 -36 32 25 67 26 110 0 133 -27 25
-45 14 -81 -50 -31 -56 -71 -95 -95 -95 -20 0 -41 39 -48 88 -12 81 -55 142
-100 142 -8 0 -27 -16 -42 -36z m-685 -455 c38 -38 44 -70 9 -47 -26 18 -65
78 -50 78 6 0 24 -14 41 -31z m-589 -24 c0 -19 -2 -35 -5 -35 -10 0 -24 40
-19 54 11 28 24 17 24 -19z m1288 -35 c22 -45 31 -130 12 -130 -5 0 -10 11
-10 25 0 14 -13 52 -30 85 -35 69 -36 73 -12 68 9 -2 27 -23 40 -48z m-88 -30
c15 -15 20 -33 20 -70 0 -27 -4 -50 -8 -50 -24 0 -97 103 -88 125 8 21 52 19
76 -5z m-1183 -46 c36 -27 69 -71 60 -80 -7 -7 -85 63 -98 88 -13 25 -2 23 38
-8z m593 -130 c13 -33 13 -231 1 -218 -30 31 -74 238 -55 257 11 11 45 -13 54
-39z m550 -6 c40 -66 75 -233 82 -397 l3 -75 -42 -1 c-26 -1 -50 -8 -63 -20
-11 -10 -23 -15 -28 -11 -8 9 -6 454 3 504 3 17 10 32 16 32 5 0 18 -15 29
-32z m157 -179 c-8 -119 -26 -136 -27 -24 0 50 3 101 7 114 13 48 26 -9 20
-90z m167 41 c27 -46 48 -141 34 -157 -15 -18 -26 -16 -33 7 -3 11 -11 20 -16
20 -6 0 -37 -28 -69 -62 -45 -48 -60 -58 -60 -43 0 32 29 195 41 232 20 61 68
63 103 3z m-488 -1 c16 -18 20 -40 23 -147 2 -69 -2 -160 -8 -201 -13 -80 -57
-185 -91 -216 -26 -23 -36 -14 -17 17 40 63 28 133 -33 185 -49 42 -90 119
-90 168 0 19 3 35 6 35 3 0 19 -11 36 -25 79 -66 118 -37 118 87 0 75 11 118
29 118 4 0 16 -9 27 -21z m-519 -65 c73 -84 104 -135 101 -164 -2 -19 -8 -24
-23 -22 -32 6 -51 29 -94 115 -69 142 -65 164 16 71z m3607 21 c29 -27 27 -56
-2 -33 -22 16 -42 40 -42 50 0 15 17 8 44 -17z m-515 -82 c24 -51 24 -52 5
-79 -50 -70 -54 -79 -48 -107 5 -25 3 -28 -12 -24 -11 3 -35 9 -54 12 -53 11
-54 14 -10 46 46 34 70 80 70 136 0 47 10 87 19 76 4 -4 18 -31 30 -60z
m-3595 -39 c32 -12 15 -24 -33 -24 -47 0 -68 9 -54 24 8 8 66 8 87 0z m333
-46 c54 -50 126 -138 119 -146 -14 -13 -212 161 -201 177 12 20 35 11 82 -31z
m1355 -58 c30 -27 58 -60 60 -72 3 -13 9 -32 13 -42 8 -18 5 -19 -52 -12 -66
7 -75 2 -107 -61 -9 -18 -22 -33 -28 -33 -20 0 -48 32 -48 54 0 23 89 216 100
216 3 0 31 -22 62 -50z m-172 -16 c0 -19 -46 -77 -71 -90 -26 -13 -30 -13 -35
0 -8 20 6 41 46 71 32 24 60 32 60 19z m777 -106 c12 -13 26 -40 31 -60 6 -21
20 -50 31 -64 12 -15 21 -39 21 -54 0 -16 14 -43 35 -67 19 -23 35 -46 35 -51
0 -12 -34 -22 -76 -22 -37 0 -60 -23 -104 -107 -18 -35 -37 -63 -42 -63 -19 0
-88 76 -90 99 -2 19 3 26 22 31 58 14 4 78 -87 103 -50 13 -47 23 10 32 45 8
98 31 109 49 13 19 9 63 -7 76 -21 18 -19 63 6 94 27 34 77 36 106 4z m1758
-153 c10 -43 26 -187 22 -192 -10 -9 -223 -14 -235 -5 -17 11 -7 31 73 145 30
43 55 82 55 87 0 6 -18 22 -40 36 -52 34 -72 26 -132 -53 -24 -32 -56 -64 -71
-71 -15 -7 -34 -26 -42 -43 -21 -39 -37 -37 -23 4 27 77 102 172 172 218 l58
38 79 -72 c44 -40 82 -81 84 -92z m-481 68 c-15 -32 -18 -35 -21 -16 -5 26 29
97 35 71 1 -9 -5 -33 -14 -55z m636 43 c0 -11 -65 -46 -85 -46 -11 0 -4 25 12
42 19 21 73 25 73 4z m-3612 -49 c8 -40 -51 -64 -78 -32 -10 13 -9 19 6 36 22
24 67 22 72 -4z m529 -3 c2 -5 -3 -19 -12 -29 -12 -17 -16 -18 -24 -6 -6 10
-6 22 0 34 10 18 30 19 36 1z m358 -83 c81 -17 -1 -131 -95 -131 -42 0 -66
-14 -73 -43 -4 -12 -20 -36 -37 -52 -28 -27 -32 -28 -46 -13 -15 14 -15 23 1
97 20 93 44 138 77 144 35 6 139 6 173 -2z m-412 -93 c-1 -18 -7 -47 -14 -63
-10 -28 -12 -28 -19 -10 -13 31 -11 90 2 103 20 20 33 7 31 -30z m-114 -14
c15 -33 15 -108 0 -98 -19 11 -51 93 -44 114 8 24 29 16 44 -16z m2249 -8 c-4
-25 -27 -28 -41 -4 -8 12 -7 21 2 32 18 21 43 2 39 -28z m-2457 13 c42 -13 75
-43 81 -74 5 -32 -67 -33 -131 -1 -109 56 -72 111 50 75z m397 -101 c-3 -51
-20 -74 -32 -42 -7 19 13 94 26 94 5 0 8 -23 6 -52z m-412 -153 c66 -77 142
-159 168 -182 26 -23 106 -72 177 -108 139 -72 146 -79 168 -170 7 -27 22 -67
34 -88 18 -32 19 -43 10 -75 -19 -63 -61 -215 -67 -244 -6 -25 -11 -28 -49
-28 -23 1 -62 5 -86 9 -55 11 -71 5 -71 -25 0 -27 -15 -30 -70 -14 -19 5 -70
14 -112 20 -43 5 -93 17 -110 26 -58 29 -170 153 -212 233 -21 41 -54 91 -72
111 -19 21 -34 43 -34 49 0 7 25 43 57 79 66 78 97 141 88 180 -3 15 -34 62
-69 105 -60 74 -63 81 -75 158 -7 45 -11 83 -8 85 2 2 22 -3 44 -12 40 -16 43
-15 94 9 30 14 59 25 65 24 6 -1 64 -65 130 -142z m2271 114 c20 -17 17 -50
-4 -42 -29 10 -73 44 -73 55 0 13 57 3 77 -13z m783 -223 c-11 -106 -36 -245
-45 -255 -15 -14 -20 25 -23 156 -4 169 8 251 46 308 l27 40 3 -70 c2 -38 -2
-119 -8 -179z m-2250 205 c0 -11 -45 -44 -72 -54 -28 -10 -22 19 8 42 27 22
64 28 64 12z m840 -9 c0 -23 -60 -122 -82 -136 -13 -8 -21 -7 -29 1 -17 17 3
61 50 112 41 44 61 52 61 23z m-1534 -21 c17 -10 57 -49 90 -86 32 -38 87 -99
122 -136 87 -95 82 -105 -26 -58 -85 36 -242 215 -242 276 0 28 15 29 56 4z
m854 4 c0 -9 -7 -18 -16 -22 -18 -7 -39 11 -30 26 11 17 46 13 46 -4z m2240
-68 c-22 -10 -44 -25 -47 -33 -3 -8 13 -45 36 -83 23 -38 41 -73 41 -78 0 -7
-47 -64 -127 -153 -5 -6 6 197 17 303 11 103 19 112 77 84 l45 -22 -42 -18z
m-326 -22 c12 -33 28 -192 24 -254 -3 -62 -6 -70 -40 -104 -25 -24 -48 -38
-71 -40 -45 -5 -57 -14 -57 -41 0 -33 -19 -46 -67 -46 -50 0 -98 36 -87 65 4
9 39 32 78 52 119 59 131 83 71 136 -19 17 -35 36 -35 43 0 14 80 126 123 172
34 35 52 40 61 17z m-2061 -2 c4 -3 -3 -22 -15 -41 -11 -19 -24 -48 -27 -65
-9 -41 -27 -45 -45 -8 -21 41 -21 45 15 86 29 33 57 44 72 28z m-2685 -21 c19
-2 32 -10 32 -18 0 -24 -27 -27 -59 -8 -34 20 -53 51 -24 39 10 -5 33 -10 51
-13z m949 1 c12 -3 45 0 72 7 53 12 70 7 173 -51 40 -22 76 -25 150 -14 56 9
87 -7 118 -58 27 -44 25 -96 -6 -155 -20 -38 -28 -73 -33 -137 -5 -68 -11 -90
-25 -101 -25 -18 -106 -29 -125 -17 -9 6 -24 41 -33 79 -17 70 -33 90 -78 101
-48 11 -118 53 -175 102 -38 34 -70 53 -94 56 -91 15 -89 12 -70 78 12 44 24
46 73 12 46 -31 92 -55 106 -55 16 0 12 52 -7 72 -9 10 -26 18 -39 18 -12 0
-36 12 -54 26 -25 21 -28 29 -19 41 7 8 19 11 28 7 9 -4 26 -9 38 -11z m3011
-3 c24 -15 32 -27 30 -43 -3 -20 -8 -22 -72 -22 -66 0 -70 -1 -76 -25 -5 -22
-11 -25 -41 -22 -98 10 -94 12 -97 -40 -4 -54 -13 -59 -64 -28 -18 10 -57 24
-86 30 -28 7 -52 15 -52 19 0 4 12 19 28 33 106 98 342 152 430 98z m1917 -43
c26 -47 13 -58 -26 -21 -37 35 -52 61 -44 75 10 16 47 -13 70 -54z m-3578 39
c75 -16 104 -33 133 -81 51 -82 29 -165 -39 -150 -64 14 -205 185 -188 228 8
20 13 20 94 3z m-754 -55 c70 -67 107 -121 84 -121 -22 0 -145 99 -167 135
-25 41 -25 45 1 45 12 0 47 -26 82 -59z m3924 22 c6 -17 -35 -27 -52 -13 -8 7
-12 17 -9 22 8 13 57 6 61 -9z m-5889 -55 c31 -31 -3 -39 -39 -8 l-24 19 26 1
c14 0 30 -5 37 -12z m4546 -57 c30 -33 11 -37 -34 -7 -48 31 -58 66 -12 42 15
-8 36 -23 46 -35z m-950 -116 c-20 -43 -49 -62 -70 -44 -21 17 -17 31 14 60
15 14 36 40 47 59 l20 35 3 -37 c2 -21 -4 -53 -14 -73z m-494 61 c0 -16 -38
-66 -51 -66 -14 0 -11 33 7 58 17 24 44 30 44 8z m3063 7 c11 -11 -14 -33 -38
-33 -29 0 -38 10 -24 27 12 14 51 18 62 6z m-348 -52 c0 -13 -7 -28 -16 -34
-19 -12 -78 -2 -104 17 -18 13 -17 14 11 30 16 9 47 15 69 13 35 -2 40 -5 40
-26z m-1759 -27 c100 -50 132 -124 73 -174 -25 -20 -33 -37 -40 -79 -6 -43
-15 -59 -40 -81 -26 -21 -31 -31 -26 -52 11 -43 60 -70 142 -78 55 -5 81 -13
106 -33 19 -14 49 -29 68 -34 39 -10 47 -22 56 -77 7 -40 42 -83 94 -117 l25
-16 -55 -27 c-29 -15 -83 -42 -119 -61 -57 -30 -246 -85 -294 -85 -28 0 -29
26 -5 84 18 46 20 58 9 71 -7 8 -20 15 -30 15 -10 0 -23 7 -31 16 -26 32 -70
44 -205 54 -252 20 -278 44 -142 131 42 27 48 36 44 55 -11 42 103 144 159
144 41 0 22 92 -32 151 -35 39 -36 42 -24 72 8 18 22 57 33 87 11 30 25 59 31
63 25 17 143 0 203 -29z m1554 -105 c0 -15 -44 -39 -73 -39 -22 0 -28 4 -25
18 6 29 98 50 98 21z m-4245 -30 c0 -15 -7 -25 -17 -27 -13 -3 -18 3 -18 21 0
13 3 27 7 31 13 12 28 -1 28 -25z m1773 -45 c13 -23 -4 -111 -38 -205 -33 -92
-67 -154 -112 -204 -65 -75 -64 -27 2 115 47 103 63 152 75 233 6 36 34 77 55
77 5 0 13 -7 18 -16z m551 7 c20 -13 7 -54 -33 -95 -39 -42 -77 -47 -100 -15
-13 20 -13 25 0 51 9 17 33 37 57 49 48 21 56 22 76 10z m1801 -35 c0 -8 -11
-28 -25 -43 -24 -27 -24 -27 -25 -5 0 28 20 62 37 62 7 0 13 -6 13 -14z
m-2220 -82 c0 -19 -5 -24 -25 -24 -19 0 -25 5 -25 23 0 13 5 28 12 35 16 16
38 -3 38 -34z m2414 37 c3 -5 -7 -17 -22 -26 -15 -9 -39 -31 -54 -49 -30 -35
-47 -29 -32 11 15 43 93 89 108 64z m-1944 -28 c-1 -13 -34 -49 -63 -67 -40
-27 -35 -1 9 40 34 33 54 43 54 27z m632 -72 c30 -48 34 -61 18 -61 -15 0 -80
91 -80 113 0 17 2 18 17 6 9 -8 29 -34 45 -58z m-2502 -1 c22 -12 40 -60 40
-109 0 -38 28 -93 95 -187 35 -49 40 -63 38 -106 -1 -47 1 -50 37 -73 39 -25
87 -82 76 -92 -3 -3 -21 8 -40 25 -23 20 -54 34 -93 42 -53 11 -65 19 -128 84
-114 116 -198 311 -164 382 19 38 95 57 139 34z m-420 -51 c12 -21 5 -75 -10
-84 -28 -17 -54 67 -28 93 17 17 26 15 38 -9z m1797 -27 c63 -78 61 -102 -7
-102 -34 0 -60 -14 -60 -32 0 -4 16 -14 35 -22 27 -12 35 -21 35 -40 0 -17 -6
-26 -15 -26 -12 0 -110 44 -123 55 -5 4 50 170 64 192 17 28 33 22 71 -25z
m-2158 -30 c103 -83 87 -121 -57 -136 -29 -3 -68 -14 -85 -24 -35 -20 -69 -19
-88 4 -17 21 1 32 64 40 40 6 50 11 58 32 8 21 6 32 -11 53 -26 36 -25 47 3
59 33 14 77 3 116 -28z m-344 16 c14 -6 25 -14 25 -17 0 -10 -149 -63 -163
-58 -18 6 67 87 91 87 12 0 33 -5 47 -12z m2725 -62 c-23 -22 -60 -30 -60 -13
0 21 10 27 44 27 26 0 28 -2 16 -14z m-1700 -193 c97 -127 135 -206 125 -259
-7 -41 -27 -58 -98 -84 -101 -38 -162 -111 -104 -125 12 -3 44 -2 70 3 62 12
58 -1 -14 -51 -61 -43 -78 -68 -79 -114 0 -17 -8 -39 -17 -49 -16 -15 -19 -15
-45 15 -33 37 -35 56 -8 96 11 17 20 38 20 48 0 25 -25 21 -40 -7 -28 -54 -51
-37 -96 71 -46 113 -31 133 99 133 85 0 117 7 117 26 0 25 -49 47 -101 46 -47
-1 -49 0 -43 22 3 14 -3 40 -15 64 l-21 41 30 25 c17 13 30 28 30 33 0 4 -19
24 -42 43 -55 48 -46 63 32 54 65 -7 76 1 58 41 -10 22 -9 28 3 36 32 20 50 6
139 -108z m410 41 c0 -19 -4 -34 -9 -34 -12 0 -25 56 -16 70 12 19 25 0 25
-36z m-1392 -48 c5 -43 -5 -72 -40 -111 -47 -55 -63 -60 -103 -35 -19 12 -35
27 -34 33 0 7 21 26 47 42 26 17 58 47 71 68 29 44 54 45 59 3z m1446 -137
c23 -27 35 -69 21 -69 -7 0 -65 81 -65 92 0 17 19 7 44 -23z m1039 17 c39 -14
77 -42 77 -58 0 -14 -23 -9 -87 22 -89 42 -81 68 10 36z m-323 -101 c24 -25
39 -45 32 -45 -25 0 -122 50 -122 63 0 42 38 35 90 -18z m-3662 -15 c39 -24
49 -45 32 -65 -19 -23 -37 -18 -48 15 -6 16 -26 39 -44 50 l-33 20 30 0 c17 0
45 -9 63 -20z m2228 9 c3 -6 2 -15 -4 -21 -8 -8 -21 -4 -44 10 l-33 22 37 0
c20 0 40 -5 44 -11z m2932 -26 c-2 -11 -26 -25 -63 -38 -33 -12 -70 -27 -81
-35 -12 -7 -29 -10 -39 -6 -17 6 -17 8 1 28 46 51 190 91 182 51z m761 -24
c37 -13 51 -35 51 -83 0 -30 -4 -36 -20 -36 -27 0 -120 87 -120 111 0 22 38
26 89 8z m-4333 -13 c6 -17 -22 -74 -65 -133 -32 -44 -61 -56 -61 -26 0 30 92
173 112 173 5 0 11 -6 14 -14z m3264 0 c0 -8 -11 -38 -25 -68 -36 -77 -33
-104 16 -147 97 -86 109 -99 109 -125 0 -14 -3 -26 -6 -26 -3 0 -28 20 -55 44
-60 54 -200 124 -277 138 -31 5 -73 17 -92 26 -19 9 -60 18 -90 22 l-55 6 39
17 c22 10 54 28 70 41 52 38 54 38 93 1 53 -50 76 -47 163 25 72 59 110 75
110 46z m-2795 -30 c28 -37 31 -81 5 -81 -19 0 -60 62 -60 91 0 35 25 30 55
-10z m1070 10 c18 -13 18 -14 -4 -25 -13 -7 -47 -15 -77 -18 -45 -5 -55 -3
-60 12 -5 12 -1 23 11 31 24 18 106 18 130 0z m2291 -40 c27 -20 6 -43 -25
-27 -22 12 -26 23 -14 34 9 10 17 9 39 -7z m118 -36 c38 -42 42 -50 26 -50
-13 0 -90 70 -90 81 0 21 30 6 64 -31z m-314 -67 c0 -17 -46 -53 -67 -53 -32
0 -27 30 7 47 27 14 60 17 60 6z m1817 -26 c-17 -26 -47 -35 -47 -13 0 18 39
48 52 40 5 -3 3 -16 -5 -27z m-1627 5 c0 -11 -71 -77 -97 -91 -37 -19 -34 4 5
41 50 48 92 71 92 50z m1960 -50 c0 -15 -35 -41 -85 -63 -80 -35 -85 -41 -78
-115 5 -55 4 -64 -11 -64 -9 0 -16 7 -16 15 0 9 -12 18 -30 22 -18 3 -30 12
-30 21 0 46 168 192 221 192 16 0 29 -4 29 -8z m-1200 -26 c0 -24 -19 -66 -30
-66 -11 0 -14 63 -3 73 12 12 33 7 33 -7z m251 -125 c-37 -62 -68 -100 -74
-90 -34 50 -61 78 -81 83 -30 7 -39 28 -22 51 12 16 16 15 53 -19 58 -52 83
-49 124 17 18 28 34 46 37 39 2 -7 -14 -43 -37 -81z m-4388 45 c15 -18 37 -58
50 -87 13 -30 47 -82 76 -116 l52 -63 -48 0 c-149 1 -260 165 -187 278 19 30
27 28 57 -12z m2373 -33 c97 -68 134 -97 134 -106 0 -5 -17 -6 -37 -3 -114 19
-146 19 -159 1 -7 -9 -10 -23 -7 -31 8 -21 -32 -77 -84 -118 -53 -41 -73 -45
-73 -14 0 13 23 44 60 80 38 37 58 63 54 71 -4 6 -16 24 -27 39 -25 34 -16 72
21 92 40 23 75 19 118 -11z m-1346 3 c0 -11 -46 -36 -66 -36 -9 0 -3 27 8 38
17 17 58 15 58 -2z m3808 -86 c4 -71 -3 -96 -33 -116 -20 -13 -28 -14 -40 -4
-32 26 -9 145 32 169 30 17 38 7 41 -49z m-1653 26 c45 -19 47 -40 3 -31 -18
4 -51 15 -73 25 l-40 18 38 1 c21 1 53 -6 72 -13z m-2921 -39 c24 -17 17 -51
-11 -55 -24 -4 -60 39 -48 58 9 14 38 13 59 -3z m616 -44 c17 -16 -183 -143
-224 -143 -23 0 -20 42 6 75 12 15 42 41 67 56 40 26 51 28 96 23 27 -4 52 -9
55 -11z m-1309 -20 c18 -49 0 -75 -36 -49 -16 12 -17 17 -6 45 16 38 28 39 42
4z m5049 -58 c-20 -47 -42 -82 -57 -93 -24 -15 -26 -15 -43 6 -22 27 -16 57
18 80 13 9 43 34 66 54 22 20 42 35 44 33 2 -2 -11 -37 -28 -80z m-3508 15
c-37 -34 -72 -40 -72 -12 0 13 12 22 38 29 62 18 69 14 34 -17z m2554 -42 c19
-59 15 -130 -11 -196 -29 -71 -40 -48 -43 94 -3 148 2 182 23 164 8 -6 21 -34
31 -62z m-158 40 c14 -14 17 -148 3 -148 -11 0 -141 59 -141 65 0 6 111 95
119 95 4 0 12 -5 19 -12z m1672 -33 c0 -31 -20 -76 -31 -69 -10 6 -12 55 -3
78 10 25 34 19 34 -9z m-1886 -11 c9 -8 16 -21 16 -29 0 -7 16 -32 35 -55 39
-47 41 -53 20 -70 -21 -18 -19 -88 4 -133 11 -21 38 -63 62 -93 25 -33 38 -59
33 -64 -5 -5 -37 4 -77 21 -77 34 -97 33 -90 -5 7 -35 -11 -34 -73 5 -61 38
-74 55 -74 95 0 20 -11 45 -30 69 -16 21 -30 42 -30 48 0 6 32 41 70 80 68 67
74 77 71 106 -6 40 33 56 63 25z m904 -22 c5 -49 -54 -133 -72 -103 -8 12 17
125 29 133 21 16 40 2 43 -30z m-4156 -12 c47 -22 110 -46 139 -53 41 -11 55
-19 57 -35 5 -35 -32 -46 -163 -46 -158 -1 -170 5 -162 83 8 69 15 91 32 91 7
0 51 -18 97 -40z m2634 6 c13 -52 -13 -82 -30 -34 -10 28 -3 58 13 58 6 0 13
-11 17 -24z m-5359 -50 c-5 -14 -97 -21 -97 -7 0 13 59 29 83 23 10 -3 16 -10
14 -16z m7053 -30 c-9 -26 -24 -33 -34 -18 -2 4 3 23 11 41 13 26 18 29 25 18
4 -9 4 -27 -2 -41z m-3448 -26 c-4 -39 -1 -43 68 -109 70 -67 82 -92 47 -99
-24 -5 -104 45 -132 82 -13 17 -26 47 -30 67 -5 30 -2 41 20 67 15 18 28 32
29 32 1 0 0 -18 -2 -40z m686 -71 c-4 -43 -33 -58 -128 -66 -76 -6 -95 7 -37
26 17 6 59 29 92 51 33 22 63 36 68 31 5 -5 7 -24 5 -42z m1930 -34 c6 -87 -4
-135 -26 -135 -23 0 -77 56 -91 92 -14 38 -5 55 39 78 21 11 40 27 44 36 13
33 30 -4 34 -71z m1217 49 c0 -19 -5 -29 -15 -29 -16 0 -25 28 -16 51 10 25
31 10 31 -22z m-5930 -74 c0 -18 -33 -26 -47 -12 -6 6 -7 15 -3 22 10 16 50 8
50 -10z m6652 -2 c28 -26 29 -38 4 -38 -20 0 -71 36 -71 51 0 17 44 9 67 -13z
m-6379 -10 c-6 -16 -36 -34 -44 -26 -3 4 -4 14 -1 23 7 17 51 21 45 3z m3472
-38 c32 -63 23 -92 -15 -50 -10 11 -33 25 -51 32 -19 7 -34 15 -34 18 0 10 32
36 50 42 21 7 28 2 50 -42z m-1296 18 c-42 -138 -79 -182 -118 -142 -28 28
-18 56 39 111 59 57 91 70 79 31z m333 -24 c9 -23 -14 -64 -36 -64 -28 0 -45
25 -32 48 17 33 58 42 68 16z m2103 -30 c0 -8 -9 -14 -20 -14 -22 0 -26 10 -8
28 13 13 28 7 28 -14z m554 -37 c23 -19 52 -40 65 -46 21 -12 22 -15 8 -28
-24 -24 -61 -8 -96 39 -29 39 -39 68 -25 68 4 0 25 -15 48 -33z m480 -12 c32
-61 28 -125 -14 -210 -30 -59 -40 -72 -70 -81 -22 -7 -44 -25 -59 -48 -17 -24
-32 -36 -48 -36 -27 0 -32 30 -9 50 23 18 0 56 -54 89 -40 24 -49 36 -59 74
-16 64 -14 101 7 119 15 14 120 59 182 79 14 4 43 7 64 6 35 -2 42 -6 60 -42z
m-1839 -10 c0 -30 -39 -27 -43 3 -3 20 0 23 20 20 15 -2 23 -10 23 -23z m-930
-21 c0 -10 -8 -20 -17 -22 -18 -3 -26 27 -11 42 12 11 28 0 28 -20z m1759 -10
c33 -13 6 -217 -34 -266 l-18 -23 -12 30 c-14 36 -30 137 -25 162 12 61 17 73
31 87 16 17 33 20 58 10z m-6475 -66 c-24 -48 -64 -108 -72 -108 -10 0 19 56
50 98 28 37 39 42 22 10z m6697 -98 l7 -65 -22 19 c-16 15 -21 30 -21 70 0 28
3 62 7 76 l7 25 8 -30 c4 -17 11 -59 14 -95z m-1306 76 c28 -15 59 -26 68 -25
9 1 20 1 23 0 4 0 -4 -34 -18 -73 -14 -40 -26 -97 -27 -127 -2 -57 -3 -59 -64
-82 -38 -14 -49 -33 -97 -165 -35 -100 -65 -144 -97 -144 -25 0 -129 53 -151
78 -15 16 -16 23 -6 46 10 21 10 34 1 60 -17 46 -15 76 8 114 37 61 127 99
192 81 21 -5 43 -7 48 -4 14 9 -12 54 -54 94 -20 19 -41 50 -47 69 -10 29 -9
38 8 61 11 14 31 32 44 39 35 19 109 9 169 -22z m-296 -8 c-13 -23 -37 -48
-46 -48 -10 0 -11 44 -1 53 3 4 17 7 30 7 17 0 22 -4 17 -12z m924 -35 c18
-13 53 -33 77 -44 25 -11 45 -24 45 -28 0 -28 -198 -171 -237 -171 -14 0 16
231 33 257 16 25 32 23 82 -14z m-4174 21 c9 -3 16 -13 16 -21 0 -21 -44 -12
-48 10 -4 18 6 21 32 11z m5160 -23 c3 -5 -3 -20 -13 -32 -26 -32 -48 -14 -25
19 16 23 29 28 38 13z m-660 -101 c52 -164 69 -273 62 -411 -11 -265 -57 -384
-181 -472 -54 -38 -57 -38 -70 -21 -28 38 -117 277 -125 337 -15 100 -52 190
-116 278 -19 26 -34 51 -34 57 0 5 40 31 89 56 107 55 184 112 270 200 36 36
68 63 72 60 5 -3 20 -41 33 -84z m295 -25 c16 -8 38 -30 49 -50 19 -31 26 -35
61 -35 74 0 117 -86 108 -215 -6 -88 -36 -168 -92 -244 -30 -41 -54 -62 -79
-71 -19 -6 -38 -20 -41 -31 -12 -36 -35 -49 -89 -49 -36 0 -58 -5 -66 -15 -10
-12 -16 -13 -26 -4 -20 16 -17 40 10 91 31 59 33 71 46 288 14 230 25 317 40
335 16 19 43 19 79 0z m297 -50 c28 -28 63 -100 64 -129 0 -19 0 -19 -22 0
-23 21 -98 132 -98 146 0 17 32 7 56 -17z m-1879 -1 c3 -8 -1 -23 -10 -32 -15
-14 -17 -14 -23 1 -8 21 1 47 16 47 6 0 13 -7 17 -16z m629 -18 c40 -40 44
-78 12 -100 -50 -36 -78 -10 -78 72 0 74 14 80 66 28z m-138 -78 c-3 -36 -7
-44 -26 -46 -28 -4 -52 14 -52 39 0 21 36 49 63 49 15 0 18 -7 15 -42z m146
-84 c25 -10 19 -47 -16 -93 l-33 -42 -3 46 c-2 30 2 55 13 71 17 27 17 26 39
18z m-164 -44 c23 -23 24 -31 11 -80 -6 -19 -15 -54 -21 -78 -9 -36 -17 -45
-60 -67 -27 -14 -61 -25 -75 -25 -23 0 -25 3 -25 47 0 66 20 174 36 201 20 30
104 32 134 2z m1480 -35 c0 -13 -4 -27 -10 -30 -6 -4 -10 8 -10 30 0 22 4 34
10 30 6 -3 10 -17 10 -30z m100 1 c11 -29 2 -66 -15 -66 -16 0 -28 45 -20 71
9 26 24 24 35 -5z m-1241 -43 c22 -26 47 -61 55 -78 20 -42 65 -188 81 -261 7
-34 30 -94 49 -133 l36 -71 -57 -76 c-80 -104 -109 -165 -129 -264 -9 -47 -22
-100 -30 -117 -16 -41 -46 -44 -63 -6 -38 83 -62 481 -42 708 14 163 41 345
52 345 4 0 26 -21 48 -47z m1411 -59 c0 -20 -25 -28 -49 -14 -26 13 -27 45 -3
59 13 8 21 6 35 -10 9 -12 17 -28 17 -35z m-270 4 c0 -2 -6 -23 -14 -47 -14
-48 -36 -67 -36 -31 0 26 27 80 40 80 6 0 10 -1 10 -2z m-1335 -75 c5 -10 12
-178 16 -373 4 -195 11 -395 14 -445 6 -82 4 -99 -24 -187 -16 -53 -33 -114
-36 -135 -11 -68 -27 -95 -73 -124 -25 -16 -49 -26 -55 -22 -17 10 9 339 48
593 18 117 31 243 45 420 14 184 33 290 50 290 4 0 11 -8 15 -17z m1472 -19
c4 -12 -39 -34 -67 -34 -11 0 -20 6 -20 13 0 28 78 47 87 21z m-2859 -56 c-6
-16 -36 -34 -44 -26 -3 4 -4 14 -1 23 7 17 51 21 45 3z m-244 -80 c13 -36 -13
-94 -65 -144 -36 -35 -39 -36 -39 -15 0 29 28 127 47 164 17 35 44 32 57 -5z
m1456 -32 c0 -29 -41 -360 -57 -460 -6 -38 -6 -38 -18 -15 -7 13 -25 72 -39
132 -15 59 -40 144 -57 189 -25 70 -28 86 -18 109 13 34 44 55 113 79 60 20
76 13 76 -34z"/>
</g>
</svg>
